<?xml version="1.0" standalone="no"?>
<!DOCTYPE svg PUBLIC "-//W3C//DTD SVG 20010904//EN"
 "http://www.w3.org/TR/2001/REC-SVG-20010904/DTD/svg10.dtd">
<svg version="1.0" xmlns="http://www.w3.org/2000/svg"
 width="600.000000pt" height="400.000000pt" viewBox="0 0 600.000000 400.000000"
 preserveAspectRatio="xMidYMid meet">
<g transform="translate(0.000000,400.000000) scale(0.100000,-0.100000)"
fill="#000000" stroke="none">
<path d="M2478 3006 c-102 -37 -176 -103 -223 -202 -43 -89 -47 -229 -9 -355
4 -13 -6 -17 -52 -22 -31 -3 -81 -18 -111 -33 -63 -32 -148 -119 -180 -185
-75 -152 -69 -370 17 -588 11 -29 24 -70 29 -92 8 -35 6 -44 -11 -61 -19 -19
-27 -20 -112 -12 -202 20 -317 7 -433 -48 -64 -30 -88 -55 -77 -82 11 -28 40
-27 115 3 100 40 184 55 266 47 213 -19 249 -19 281 -2 67 34 78 111 36 241
-66 209 -83 384 -47 491 19 58 70 137 84 129 5 -4 9 -26 9 -51 0 -99 97 -223
239 -303 110 -62 183 -90 351 -136 193 -52 270 -76 270 -86 0 -31 -128 -69
-231 -69 -181 0 -345 102 -440 271 -27 49 -39 63 -55 61 -99 -18 46 -248 216
-342 35 -19 105 -74 155 -121 155 -145 315 -208 494 -196 116 9 195 37 275
100 37 30 39 30 85 18 87 -25 126 -30 226 -30 109 -1 189 11 395 59 267 62
385 74 465 45 51 -19 79 -19 94 -1 28 34 -30 77 -134 99 -73 15 -221 -2 -425
-49 -85 -19 -188 -42 -228 -50 -91 -17 -251 -18 -317 0 -58 15 -59 19 -24 111
31 82 39 282 15 376 -32 125 -90 210 -166 244 -22 10 -40 23 -40 29 0 6 14 31
30 55 88 129 77 329 -24 448 -15 17 -54 46 -88 62 -85 43 -158 43 -247 1 -35
-17 -67 -27 -71 -23 -4 4 -14 29 -24 55 -35 95 -116 173 -206 198 -48 14 -128
12 -172 -4z m218 -44 c82 -42 144 -136 159 -240 l7 -51 26 31 c64 75 199 100
297 54 104 -48 157 -142 158 -278 0 -78 -3 -93 -31 -151 -18 -36 -50 -81 -72
-101 -22 -20 -40 -38 -40 -40 0 -2 22 -6 49 -9 92 -11 162 -82 203 -208 17
-51 22 -90 22 -189 1 -134 -11 -188 -60 -279 -13 -24 -23 -45 -22 -46 2 -1 32
-10 68 -21 85 -25 281 -26 390 -2 41 10 145 33 230 53 210 48 360 57 443 25
53 -20 78 -42 64 -56 -3 -3 -25 5 -49 18 -38 20 -56 23 -153 22 -107 -1 -140
-7 -410 -70 -262 -62 -425 -65 -558 -13 l-49 20 -39 -35 c-104 -95 -285 -131
-444 -91 -124 32 -276 128 -339 214 -14 19 -44 42 -67 53 -110 49 -232 161
-275 253 -46 98 -23 118 24 23 37 -74 114 -156 196 -210 157 -102 356 -105
525 -7 40 23 51 33 40 39 -23 13 -165 57 -325 99 -242 65 -355 118 -465 219
-71 65 -108 127 -116 192 -7 60 12 95 62 116 35 14 90 10 102 -9 11 -18 32 36
22 55 -12 23 -82 24 -134 2 -63 -26 -138 -106 -176 -187 -29 -63 -34 -85 -37
-170 -5 -114 6 -178 55 -337 57 -181 49 -235 -38 -261 -29 -9 -61 -8 -151 6
-75 11 -135 15 -178 11 -67 -7 -199 -47 -237 -72 -28 -18 -43 -18 -43 0 0 20
110 72 191 91 78 18 153 19 279 3 101 -12 139 -8 164 18 25 25 19 68 -29 216
-57 172 -71 271 -56 376 30 207 195 377 349 359 73 -8 110 -76 61 -110 -19
-14 -19 -15 23 -52 101 -87 216 -125 378 -125 95 0 257 23 273 39 4 5 -5 14
-22 20 -73 31 -137 126 -148 221 l-6 51 -46 -47 c-66 -66 -138 -98 -226 -98
-85 -1 -134 22 -193 89 -54 62 -76 129 -77 235 0 174 92 311 245 361 44 15
161 4 206 -19z m89 -651 c9 -27 34 -70 57 -96 31 -35 38 -49 29 -58 -17 -17
-249 -22 -324 -7 -71 14 -146 48 -197 89 -31 26 -33 31 -22 55 l11 25 56 -25
c98 -45 238 -27 320 41 17 13 35 24 42 25 6 0 19 -22 28 -49z"/>
<path d="M2463 2924 c-175 -87 -238 -342 -126 -506 16 -24 46 -48 80 -64 45
-22 63 -26 108 -21 75 8 137 38 193 94 67 67 94 129 100 228 7 131 -41 225
-140 276 -56 29 -150 26 -215 -7z m224 -30 c83 -54 122 -157 102 -267 -20
-113 -77 -190 -174 -238 -55 -27 -73 -31 -119 -27 -72 6 -123 40 -156 104 -21
42 -25 62 -25 144 0 84 3 102 28 152 31 63 99 129 149 145 18 6 60 11 93 12
50 1 68 -4 102 -25z"/>
<path d="M3030 2741 c-80 -26 -136 -78 -177 -166 -77 -165 5 -367 164 -400
103 -21 240 91 278 229 35 125 -17 269 -116 321 -33 18 -117 27 -149 16z m118
-36 c77 -33 119 -98 128 -198 10 -109 -47 -217 -143 -274 -184 -108 -360 140
-247 348 62 113 167 163 262 124z"/>
<path d="M2142 2247 c-72 -76 42 -248 226 -341 73 -37 164 -68 318 -110 73
-19 156 -44 185 -56 30 -11 56 -20 59 -20 2 0 -14 19 -37 43 -53 54 -63 76
-63 130 0 64 28 97 84 97 33 0 48 -6 70 -29 l27 -28 33 33 c38 38 70 43 116
19 33 -17 44 -43 42 -99 -2 -50 -36 -107 -101 -172 l-51 -51 25 -11 c14 -7 65
-40 113 -76 99 -72 148 -100 162 -91 40 25 83 184 83 310 0 166 -50 290 -133
333 -64 32 -135 29 -314 -15 -137 -34 -164 -38 -286 -37 -193 0 -270 25 -409
135 -82 66 -114 73 -149 36z m108 -39 c24 -18 57 -43 74 -56 117 -87 296 -125
477 -102 52 7 147 25 211 41 243 59 320 34 368 -119 27 -85 34 -178 20 -268
-13 -87 -51 -184 -73 -184 -18 0 -197 128 -204 146 -3 8 11 32 30 54 96 106
111 222 36 285 -38 31 -100 34 -145 6 -32 -19 -32 -19 -73 1 -104 51 -209 -51
-171 -167 6 -19 9 -39 6 -43 -6 -10 -226 47 -325 84 -145 55 -252 132 -301
218 -31 54 -37 85 -20 117 15 27 41 24 90 -13z"/>
<path d="M3071 1954 c-13 -9 -29 -32 -37 -50 -17 -42 -28 -43 -44 -5 -26 65
-90 81 -118 31 -25 -45 -1 -102 79 -183 l69 -71 40 39 c65 64 103 130 104 182
1 66 -42 93 -93 57z m51 -91 c-13 -42 -86 -133 -107 -133 -19 0 -93 89 -106
128 -11 34 -7 62 10 62 6 0 25 -16 42 -35 18 -19 40 -35 49 -35 9 0 33 19 54
42 34 38 39 40 53 25 14 -14 15 -22 5 -54z"/>
<path d="M2970 1605 c-30 -20 -79 -44 -108 -55 -68 -26 -184 -36 -236 -21 -22
6 -42 8 -45 5 -10 -9 91 -92 157 -130 35 -20 91 -45 124 -55 80 -25 217 -27
290 -4 54 17 159 81 165 100 2 6 -10 16 -25 23 -16 7 -77 48 -137 92 -60 44
-113 80 -119 80 -6 0 -36 -16 -66 -35z m197 -87 c52 -38 93 -75 91 -81 -6 -21
-112 -67 -178 -78 -73 -12 -171 0 -251 30 -65 25 -151 81 -146 95 2 6 39 14
83 17 68 6 91 14 174 56 74 39 99 48 114 40 11 -5 61 -41 113 -79z"/>
</g>
</svg>
