<svg width="900" height="650" viewBox="0 0 900 650" fill="none" xmlns="http://www.w3.org/2000/svg">
  <title>TalkPoint continuous line hugging logo</title>
  <desc>Continuous-line style logo of two people hugging, using the TalkPoint warm green and accent palette.</desc>

  <rect width="900" height="650" fill="#FBF6EE"/>

  <!-- Main continuous line hug illustration -->
  <path
    d="
      M 85 430
      C 130 420, 145 390, 150 340
      C 154 290, 188 250, 235 254

      C 190 226, 176 174, 203 136
      C 231 96, 291 102, 315 143
      C 339 184, 318 235, 274 250

      C 323 247, 365 272, 392 310
      C 415 342, 424 374, 424 374

      C 455 333, 492 310, 536 308
      C 497 286, 484 237, 508 201
      C 536 159, 598 166, 620 210
      C 642 254, 613 300, 568 310

      C 620 320, 664 363, 678 421
      C 691 474, 660 520, 610 526

      C 555 532, 511 501, 481 456
      C 458 423, 441 398, 424 374

      C 390 414, 350 451, 296 452
      C 240 453, 190 424, 166 380
      C 154 357, 149 343, 150 340

      C 178 374, 225 399, 280 397
      C 338 395, 371 361, 392 310

      C 390 354, 404 389, 431 421
      C 459 454, 507 475, 557 469
      C 600 464, 632 441, 646 407

      M 424 374
      C 407 349, 406 326, 424 312
      C 444 296, 466 309, 471 331
      C 478 306, 507 296, 524 316
      C 542 337, 528 365, 499 386
      C 474 404, 444 413, 424 374

      M 610 526
      C 662 529, 714 516, 765 494
      C 790 483, 815 478, 840 485
    "
    stroke="#2F6F68"
    stroke-width="14"
    stroke-linecap="round"
    stroke-linejoin="round"
  />

  <!-- Warm heart accent -->
  <path
    d="
      M 431 361
      C 418 346, 419 329, 432 321
      C 446 313, 462 324, 466 340
      C 471 322, 491 314, 504 327
      C 519 343, 508 365, 486 381
      C 465 397, 445 393, 431 361
    "
    fill="none"
    stroke="#DCA77A"
    stroke-width="10"
    stroke-linecap="round"
    stroke-linejoin="round"
  />

  <!-- Small soft background support shape -->
  <circle cx="432" cy="364" r="210" fill="#B8CBBF" opacity="0.12"/>
</svg>
